<svg xmlns="http://www.w3.org/2000/svg" width="216" height="216" viewBox="0 0 216 216">
    <defs>
        <linearGradient id="bg" x1="16" y1="8" x2="200" y2="208" gradientUnits="userSpaceOnUse">
            <stop offset="0" stop-color="#2B2410" />
            <stop offset="1" stop-color="#8A7A1F" />
        </linearGradient>
        <clipPath id="squircle">
            <rect x="0" y="0" width="216" height="216" rx="60" />
        </clipPath>
    </defs>
    <g clip-path="url(#squircle)">
        <rect width="216" height="216" fill="url(#bg)" />
        <path
            fill="#FFF9EB"
            fill-rule="evenodd"
            transform="scale(2)"
            d="M48.622,32.592L50.465,29.558L50.196,26.459L52.206,24.267L55.794,24.267L57.804,26.459L57.535,29.558L59.378,32.592L65.335,35.06L68.783,34.217L70.785,31.836L73.756,31.707L76.293,34.244L76.164,37.215L73.783,39.217L72.94,42.665L75.408,48.622L78.442,50.465L81.541,50.196L83.733,52.206L83.733,55.794L81.541,57.804L78.442,57.535L75.408,59.378L72.94,65.335L73.783,68.783L76.164,70.785L76.293,73.756L73.756,76.293L70.785,76.164L68.783,73.783L65.335,72.94L59.378,75.408L57.535,78.442L57.804,81.541L55.794,83.733L52.206,83.733L50.196,81.541L50.465,78.442L48.622,75.408L42.665,72.94L39.217,73.783L37.215,76.164L34.244,76.293L31.707,73.756L31.836,70.785L34.217,68.783L35.06,65.335L32.592,59.378L29.558,57.535L26.459,57.804L24.267,55.794L24.267,52.206L26.459,50.196L29.558,50.465L32.592,48.622L35.06,42.665L34.217,39.217L31.836,37.215L31.707,34.244L34.244,31.707L37.215,31.836L39.217,34.217L42.665,35.06Z M65,54A11,11 0 1,0 43,54A11,11 0 1,0 65,54Z" />
    </g>
</svg>
